:FULLY-SPECIFIED
:FORCE-ALL-JOINTS-BE-3DOF
:DEGREES
816
root -4.95229 14.665 -39.86 483.518 -66.9466 241.954
lfemur -60.4123 11.6872 -1.40205
ltibia 64.2102 0 0
lfoot 5.85075 5.16826 0
ltoes -7.39537 0 0
rfemur -20.1045 3.98752 14.3332
rtibia 71.2453 0 0
rfoot -28.2618 -18.6252 0
rtoes -28.9185 0 0
lowerback 15.643 2.50612 0.900581
upperback -0.177038 3.67351 2.76241
thorax -9.14125 1.75516 1.63246
lowerneck -2.55532 10.1661 3.7238
upperneck 1.2301 13.5651 -5.12115
head 1.51183 6.73698 -1.88774
lclavicle -1.08481e-15 6.34246e-15 0
lhumerus 71.9264 -9.0934 61.8338
lradius 44.5887 0 0
lwrist -6.55195 0 0
lhand -20.8622 32.6398 0
lfingers 7.12502 0 0
lthumb 5.50719 62.5317 0
rclavicle -1.08481e-15 6.34246e-15 0
rhumerus -15.3976 24.1657 -63.1947
rradius 74.7034 0 0
rwrist -24.8839 0 0
rhand 3.63035 -38.9868 0
rfingers 7.12502 0 0
rthumb 28.9998 -66.1013 0
817
root -4.79286 14.6845 -39.9021 478.799 -66.9495 246.835
lfemur -60.4692 12.3394 -1.84149
ltibia 65.2528 0 0
lfoot 5.39181 5.41974 0
ltoes -7.30705 0 0
rfemur -20.659 3.07288 14.6757
rtibia 71.078 0 0
rfoot -28.3509 -19.0205 0
rtoes -28.6607 0 0
lowerback 15.7409 2.44161 1.01078
upperback -0.187494 3.60894 2.74653
thorax -9.19944 1.71796 1.56562
lowerneck -2.55439 10.2376 3.78368
upperneck 1.22058 13.6638 -5.28107
head 1.53524 6.78485 -1.9434
lclavicle -3.56983e-15 5.75742e-15 0
lhumerus 73.3907 -10.2232 60.0666
lradius 47.3975 0 0
lwrist -5.48641 0 0
lhand -20.8158 32.7197 0
lfingers 7.12502 0 0
lthumb 5.55204 62.609 0
rclavicle -3.56983e-15 5.75742e-15 0
rhumerus -13.1759 25.3989 -62.5079
rradius 74.5663 0 0
rwrist -24.0472 0 0
rhand 2.63628 -39.0365 0
rfingers 7.12502 0 0
rthumb 28.0477 -66.281 0
818
root -4.63342 14.704 -39.9442 473.611 -66.9585 252.199
lfemur -60.5245 13.0373 -2.3216
ltibia 66.3767 0 0
lfoot 4.90736 5.70748 0
ltoes -7.21199 0 0
rfemur -21.2972 2.08914 15.053
rtibia 70.9298 0 0
rfoot -28.4518 -19.4427 0
rtoes -28.377 0 0
lowerback 15.8522 2.37224 1.12248
upperback -0.197237 3.53863 2.72594
thorax -9.26398 1.67783 1.49379
lowerneck -2.55254 10.3213 3.8517
upperneck 1.20805 13.7791 -5.46199
head 1.56075 6.84083 -2.00639
lclavicle -6.23154e-15 5.24101e-15 0
lhumerus 74.9965 -11.4874 58.0779
lradius 50.5022 0 0
lwrist -4.23369 0 0
lhand -20.7518 32.8046 0
lfingers 7.12502 0 0
lthumb 5.61378 62.691 0
rclavicle -6.23154e-15 5.24101e-15 0
rhumerus -10.6833 26.7516 -61.7213
rradius 74.3757 0 0
rwrist -23.0955 0 0
rhand 1.55245 -39.1006 0
rfingers 7.12502 0 0
rthumb 27.0095 -66.486 0
819
root -4.47399 14.7234 -39.9863 467.932 -66.9743 258.07
lfemur -60.5776 13.7822 -2.84437
ltibia 67.585 0 0
lfoot 4.39699 6.03387 0
ltoes -7.10992 0 0
rfemur -22.0247 1.03369 15.467
rtibia 70.8034 0 0
rfoot -28.5653 -19.8926 0
rtoes -28.066 0 0
lowerback 15.9778 2.29783 1.23532
upperback -0.20615 3.4623 2.70024
thorax -9.33522 1.63464 1.41679
lowerneck -2.54967 10.418 3.92837
upperneck 1.19226 13.9121 -5.66524
head 1.58847 6.90547 -2.07717
lclavicle -9.07598e-15 4.80258e-15 0
lhumerus 76.7511 -12.894 55.8541
lradius 53.9189 0 0
lwrist -2.78034 0 0
lhand -20.6688 32.8947 0
lfingers 7.12502 0 0
lthumb 5.69387 62.7779 0
rclavicle -9.07598e-15 4.80258e-15 0
rhumerus -7.90341 28.2301 -60.8284
rradius 74.1271 0 0
rwrist -22.0211 0 0
rhand 0.374611 -39.1804 0
rfingers 7.12502 0 0
rthumb 25.8811 -66.7182 0
